<?xml version="1.0" encoding="utf-8"?>
<!-- Generator: Adobe Illustrator 21.0.0, SVG Export Plug-In . SVG Version: 6.00 Build 0)  -->
<svg version="1.1" id="smileSvgLogo" xmlns="http://www.w3.org/2000/svg" xmlns:xlink="http://www.w3.org/1999/xlink" x="0px" y="0px"
	 viewBox="0 0 750 1334" style="enable-background:new 0 0 750 1334;" xml:space="preserve">
<path d="M434,191c7.7,0,14-6.3,14-14s-6.3-14-14-14s-14,6.3-14,14S426.3,191,434,191z M243.6,229.8c-11.4-2.9-12-3.5-12-10.2
	c0-5.2,1.6-7.3,10.8-7.3c6.6,0,16.8,1.2,23.2,2.4l2.1-16.8c-7.3-1.9-17.5-2.9-25.3-2.9c-24.1,0-31.6,7.5-31.6,24.4
	c0,16.3,2.4,21.5,23.1,26.5c13.7,3.3,14.7,5.9,14.7,11.1c0,6.4-1.4,8.5-10.8,8.5c-8.7,0-18-1.6-25.1-3.6l-2.9,16.1
	c7.8,2.8,20.1,4.9,29.1,4.9c25.5,0,30.5-10.1,30.5-26.4C269.4,239.2,267.2,236.1,243.6,229.8z M386.2,195c-10.2,0-23.8,3.8-34,9
	c-2.8-5.7-7.8-9-16-9c-9.9,0-23.2,3.6-33.8,8.8l-2.1-7.1h-16.1v84.4h21.2v-58.6c7.6-4,16.8-7.1,22-7.1c4.9,0,6.8,2.3,6.8,6.8v59
	h21.2v-58.6c6.6-3.8,16.8-7.1,22-7.1c4.9,0,6.8,2.3,6.8,6.8v59h21.2v-61.2C405.3,204.9,400.2,195,386.2,195z M449.5,211.2l-21.9-0.6
	c0,0-3.6,4.4-4.3,29c-0.7,24.4,3.3,32.2,3.3,32.2l4.1,0.1l4.1,0.1l-5.2,9.4l-5.2,9.4l9.7,5.8l7.2-11.4l7.2-11.4
	c0,0-3.9-9.2-3.3-32.9C446,215.6,449.5,211.2,449.5,211.2z M569.9,247v-18c0-18.2-6.1-34-33.1-34c-27.1,0-35,15.1-35,32.9v22.4
	c0,20.3,9.2,32.6,35.7,32.6c10.1,0,21.5-1.7,31-5.4l-3.3-16c-9.2,2.8-17.7,4-25.8,4c-12.8,0-16.5-4-16.5-14.2V247H569.9z
	 M522.9,225.8c0-8,3.6-13.5,14-13.5s12.8,5.5,12.8,13.5v4.2h-26.9V225.8z M478.2,154H461v127h17.2c0,0,11,0,11-65
	C489.2,154,478.2,154,478.2,154z"/>
</svg>
